<svg xmlns="http://www.w3.org/2000/svg" width="35" height="35" fill="none"><path fill="#fff" d="M17.5 34.583C8.065 34.583.417 26.935.417 17.5.417 8.065 8.065.417 17.5.417c9.436 0 17.084 7.648 17.084 17.083-.01 9.43-7.654 17.073-17.084 17.083Zm-7.3-12.322c-.22 0-.438.027-.654.079l-.256.07-1.015 1.737a1.406 1.406 0 0 0 2.332 1.565l.106-.16 1.35-2.341a2.368 2.368 0 0 0-1.88-.95h.018Zm9.37-10.467c-.532.5-.885 1.16-1.004 1.88a4.1 4.1 0 0 0 .513 2.884l5.193 8.997a1.412 1.412 0 0 0 1.83.55 1.406 1.406 0 0 0 .683-1.784l-.084-.17-1.366-2.377h2.033a1.406 1.406 0 0 0 .17-2.8l-.17-.01h-3.656l-3.748-6.492-.391-.683-.004.005ZM7.693 18.952a1.396 1.396 0 0 0-1.392 1.402c0 .708.526 1.306 1.228 1.396l.171.009H20.48a1.982 1.982 0 0 0-.03-1.823 1.767 1.767 0 0 0-1.354-.976l-.207-.01h-4.358l6.027-10.436a1.408 1.408 0 0 0-2.332-1.563l-.105.157-.62 1.083-.614-1.083a1.413 1.413 0 0 0-1.831-.55 1.41 1.41 0 0 0-.684 1.785l.084.171 1.418 2.494-4.587 7.944H7.694Z"/></svg>