<svg xmlns="http://www.w3.org/2000/svg" width="32" height="31" fill="none"><path fill="#fff" d="m17.288 15.078 5.545-4.915L4.925 1.242C3.738.674 2.626.594 1.65 1.215l15.637 13.863Zm6.49 5.753 5.764-2.873c1.125-.559 1.741-1.35 1.741-2.227 0-.876-.616-1.669-1.74-2.227l-5.218-2.598-5.874 5.205 5.327 4.72ZM.688 2.424C.567 2.75.5 3.117.5 3.517v24.439c0 .633.157 1.178.442 1.612L16.124 16.11.687 2.424Zm16.6 14.716L2.191 30.524c.289.098.6.15.928.15.585 0 1.195-.154 1.815-.46l17.353-8.637-4.998-4.437Z"/></svg>